<mxfile host="app.diagrams.net" modified="2021-08-31T12:02:28.325Z" agent="5.0 (Windows NT 10.0; WOW64) AppleWebKit/537.36 (KHTML, like Gecko) Chrome/92.0.4515.159 Safari/537.36" etag="dltykXCpscMehqd9lCue" version="15.0.3" type="github">
  <diagram id="XJQK1F1-KRlJBmQ7H95f" name="Page-1">
    <mxGraphModel dx="539" dy="301" grid="0" gridSize="10" guides="1" tooltips="1" connect="1" arrows="1" fold="1" page="1" pageScale="1" pageWidth="827" pageHeight="1169" math="1" shadow="0">
      <root>
        <mxCell id="0" />
        <mxCell id="1" parent="0" />
        <mxCell id="pOMU_A7e8w6HZD5HfNyL-3" value="" style="edgeStyle=orthogonalEdgeStyle;rounded=0;orthogonalLoop=1;jettySize=auto;html=1;" edge="1" parent="1" source="pOMU_A7e8w6HZD5HfNyL-1" target="pOMU_A7e8w6HZD5HfNyL-2">
          <mxGeometry relative="1" as="geometry" />
        </mxCell>
        <mxCell id="pOMU_A7e8w6HZD5HfNyL-1" value="$$S_{cps1}$$" style="text;html=1;strokeColor=none;fillColor=none;align=center;verticalAlign=middle;whiteSpace=wrap;rounded=0;" vertex="1" parent="1">
          <mxGeometry x="260" y="110" width="40" height="20" as="geometry" />
        </mxCell>
        <mxCell id="pOMU_A7e8w6HZD5HfNyL-2" value="$$S_{cps2}$$" style="text;html=1;strokeColor=none;fillColor=none;align=center;verticalAlign=middle;whiteSpace=wrap;rounded=0;" vertex="1" parent="1">
          <mxGeometry x="260" y="160" width="40" height="20" as="geometry" />
        </mxCell>
        <mxCell id="pOMU_A7e8w6HZD5HfNyL-4" value="" style="endArrow=none;dashed=1;html=1;dashPattern=1 3;strokeWidth=2;" edge="1" parent="1">
          <mxGeometry width="50" height="50" relative="1" as="geometry">
            <mxPoint x="280" y="210" as="sourcePoint" />
            <mxPoint x="279.58" y="180" as="targetPoint" />
          </mxGeometry>
        </mxCell>
        <mxCell id="pOMU_A7e8w6HZD5HfNyL-7" value="" style="edgeStyle=orthogonalEdgeStyle;rounded=0;orthogonalLoop=1;jettySize=auto;html=1;" edge="1" parent="1" source="pOMU_A7e8w6HZD5HfNyL-5" target="pOMU_A7e8w6HZD5HfNyL-6">
          <mxGeometry relative="1" as="geometry" />
        </mxCell>
        <mxCell id="pOMU_A7e8w6HZD5HfNyL-5" value="$$S_{cpsn}$$" style="text;html=1;strokeColor=none;fillColor=none;align=center;verticalAlign=middle;whiteSpace=wrap;rounded=0;" vertex="1" parent="1">
          <mxGeometry x="260" y="210" width="40" height="20" as="geometry" />
        </mxCell>
        <mxCell id="pOMU_A7e8w6HZD5HfNyL-6" value="$$S_{cpsn}\prime$$" style="text;html=1;strokeColor=none;fillColor=none;align=center;verticalAlign=middle;whiteSpace=wrap;rounded=0;" vertex="1" parent="1">
          <mxGeometry x="260" y="260" width="40" height="20" as="geometry" />
        </mxCell>
        <mxCell id="pOMU_A7e8w6HZD5HfNyL-8" value="$$S_{ssa}$$" style="text;html=1;strokeColor=none;fillColor=none;align=center;verticalAlign=middle;whiteSpace=wrap;rounded=0;" vertex="1" parent="1">
          <mxGeometry x="380" y="110" width="40" height="20" as="geometry" />
        </mxCell>
        <mxCell id="pOMU_A7e8w6HZD5HfNyL-9" value="" style="endArrow=none;html=1;" edge="1" parent="1">
          <mxGeometry width="50" height="50" relative="1" as="geometry">
            <mxPoint x="300" y="120" as="sourcePoint" />
            <mxPoint x="380" y="120" as="targetPoint" />
          </mxGeometry>
        </mxCell>
        <mxCell id="pOMU_A7e8w6HZD5HfNyL-10" value="" style="endArrow=none;html=1;exitX=1;exitY=0.5;exitDx=0;exitDy=0;" edge="1" parent="1" source="pOMU_A7e8w6HZD5HfNyL-2">
          <mxGeometry width="50" height="50" relative="1" as="geometry">
            <mxPoint x="324" y="180" as="sourcePoint" />
            <mxPoint x="380" y="130" as="targetPoint" />
          </mxGeometry>
        </mxCell>
        <mxCell id="pOMU_A7e8w6HZD5HfNyL-11" value="" style="endArrow=none;html=1;" edge="1" parent="1">
          <mxGeometry width="50" height="50" relative="1" as="geometry">
            <mxPoint x="300" y="220" as="sourcePoint" />
            <mxPoint x="380" y="140" as="targetPoint" />
          </mxGeometry>
        </mxCell>
        <mxCell id="pOMU_A7e8w6HZD5HfNyL-12" value="" style="endArrow=none;html=1;exitX=1;exitY=0.25;exitDx=0;exitDy=0;" edge="1" parent="1" source="pOMU_A7e8w6HZD5HfNyL-6">
          <mxGeometry width="50" height="50" relative="1" as="geometry">
            <mxPoint x="300" y="280" as="sourcePoint" />
            <mxPoint x="380" y="150" as="targetPoint" />
          </mxGeometry>
        </mxCell>
        <mxCell id="pOMU_A7e8w6HZD5HfNyL-13" value="$$\sim$$" style="text;html=1;strokeColor=none;fillColor=none;align=center;verticalAlign=middle;whiteSpace=wrap;rounded=0;" vertex="1" parent="1">
          <mxGeometry x="310" y="100" width="40" height="20" as="geometry" />
        </mxCell>
        <mxCell id="pOMU_A7e8w6HZD5HfNyL-14" value="$$\sim$$" style="text;html=1;strokeColor=none;fillColor=none;align=center;verticalAlign=middle;whiteSpace=wrap;rounded=0;" vertex="1" parent="1">
          <mxGeometry x="310" y="130" width="40" height="20" as="geometry" />
        </mxCell>
        <mxCell id="pOMU_A7e8w6HZD5HfNyL-15" value="$$\sim$$" style="text;html=1;strokeColor=none;fillColor=none;align=center;verticalAlign=middle;whiteSpace=wrap;rounded=0;" vertex="1" parent="1">
          <mxGeometry x="310" y="160" width="40" height="20" as="geometry" />
        </mxCell>
        <mxCell id="pOMU_A7e8w6HZD5HfNyL-16" value="$$\sim$$" style="text;html=1;strokeColor=none;fillColor=none;align=center;verticalAlign=middle;whiteSpace=wrap;rounded=0;" vertex="1" parent="1">
          <mxGeometry x="307" y="205" width="40" height="20" as="geometry" />
        </mxCell>
      </root>
    </mxGraphModel>
  </diagram>
</mxfile>
